<?xml version="1.0" encoding="utf-8"?>
<!-- Uploaded to: SVG Repo, www.svgrepo.com, Generator: SVG Repo Mixer Tools -->
<svg width="800px" height="800px" viewBox="0 0 1024 1024" fill="#000000" class="icon"  version="1.1" xmlns="http://www.w3.org/2000/svg"><path d="M820.8 512c0 44.8 36 80.8 80.8 80.8s80.8-36 80.8-80.8-36-80.8-80.8-80.8-80.8 36-80.8 80.8zM431.2 512c0 44.8 36 80.8 80.8 80.8S592.8 556.8 592.8 512 556.8 431.2 512 431.2 431.2 467.2 431.2 512zM40.8 512c0 44.8 36 80.8 80.8 80.8S203.2 556.8 203.2 512s-36-80.8-80.8-80.8S41.6 467.2 40.8 512z" fill="" /></svg>