<?xml version="1.0" ?>

<!-- Uploaded to: SVG Repo, www.svgrepo.com, Generator: SVG Repo Mixer Tools -->
<svg width="800px" height="800px" viewBox="-52.05 0 684.34 684.34" id="Layer_1" version="1.1" xml:space="preserve" xmlns="http://www.w3.org/2000/svg" xmlns:xlink="http://www.w3.org/1999/xlink">

<style type="text/css">
	.st0{clip-path:url(#SVGID_2_);}
	.st1{clip-path:url(#SVGID_4_);}
	.st2{clip-path:url(#SVGID_6_);}
	.st3{clip-path:url(#SVGID_8_);}
	.st4{clip-path:url(#SVGID_10_);}
	.st5{clip-path:url(#SVGID_12_);}
	.st6{clip-path:url(#SVGID_14_);}
	.st7{clip-path:url(#SVGID_16_);}
	.st8{clip-path:url(#SVGID_18_);}
	.st9{clip-path:url(#SVGID_20_);}
	.st10{clip-path:url(#SVGID_22_);}
	.st11{clip-path:url(#SVGID_24_);}
	.st12{clip-path:url(#SVGID_26_);}
	.st13{clip-path:url(#SVGID_28_);}
	.st14{clip-path:url(#SVGID_30_);}
	.st15{clip-path:url(#SVGID_32_);}
	.st16{clip-path:url(#SVGID_34_);}
	.st17{clip-path:url(#SVGID_36_);}
	.st18{clip-path:url(#SVGID_38_);}
	.st19{clip-path:url(#SVGID_40_);}
</style>

<g>

<defs>

<rect height="684.34" id="SVGID_7_" width="580.24" y="0"/>

</defs>

<clipPath id="SVGID_2_">

<use style="overflow:visible;" xlink:href="#SVGID_7_"/>

</clipPath>

<g class="st0">

<path d="M404.16,567.85c4.74-5.8,9.2-11.99,14.29-17.28c4.48-4.65,9.57-8.5,14.58-12.33c4.64-3.55,9.54-6.61,14.73-9.08    c-3.77,4.69-7.36,9.63-11.35,14.04c-11.17,12.33-21.88,25.16-29.7,40.94c-6.74,13.6-12.57,27.77-15.44,43.44    c-1.26,6.91-2.62,13.79-3.94,20.68c0.38,0.21,0.76,0.42,1.14,0.63c0.72-1.27,1.48-2.51,2.16-3.81    c8.8-16.63,16.81-33.98,26.58-49.74c12.58-20.31,27.38-38.23,46.72-49.52c2.33-1.36,4.79-2.41,7.37-3.21    c-29.87,31.33-56.8,64.82-63.85,114.83c20.69-54.54,54.77-87.1,104.49-93.99c-16.13,8.38-31.58,18.31-46.09,30.45    c-14.82,12.39-27.35,27.41-37.72,45.63c23.38,12.19,46.52,24.26,69.67,36.33c-0.1,0.32-0.2,0.63-0.3,0.95    c-4.86-1.18-9.7-2.49-14.58-3.51c-3.25-0.68-6.56-1.36-9.84-1.36c-126.25-0.06-252.5-0.05-378.74,0.04    c-4.69,0-9.37,1.04-14.06,1.54c-0.72,0.08-1.47-0.16-2.25-0.7c21.84-13.11,45.77-17.96,68.9-26.22    c-5.84-18.16-16.79-30.68-29.9-41.4c-16.28-13.3-34.33-20.56-53.23-25.65c-10.89-2.94-21.88-4.03-33.01-3.73    c-0.62,0.02-1.25-0.41-1.73-1.19c41.08-10.88,77.68,1.13,110.86,31.57c-19.04-32.74-45.17-55.95-71.66-78.89    c17.51,5.66,33.38,15.33,47.93,28.28c14.72,13.1,29.15,26.57,40.01,44.77c0.29-0.15,0.58-0.3,0.87-0.44    c-0.5-2.1-0.99-4.21-1.49-6.31c-3.96-16.47-7.38-33.17-12.02-49.36c-5.07-17.67-10.64-35.21-17.13-52.18    c-7.01-18.33-17.59-33.86-31.02-45.95C83.97,435.8,71.83,426.59,60,416.88c-0.95-0.78-1.82-1.68-2.58-2.98    c9.36,0.67,18.32,3.44,26.65,8.38c8.23,4.88,16.12,10.6,25.2,16.65c-30.41-74.03-53.59-150.51-74.4-228.22    c2.03,4.42,4.26,8.73,6.05,13.29c10.51,26.85,20.88,53.79,31.38,80.65c14.14,36.16,28.27,72.32,42.59,108.38    c5.82,14.64,11.6,29.37,18.35,43.38c7.07,14.66,15.28,28.52,23,42.73c1.02,1.87,2.1,3.7,3.78,5.05    c-6.44-26.22-12.88-52.43-19.32-78.65c0.35-0.13,0.7-0.27,1.05-0.4c7.16,17.12,14.32,34.24,21.48,51.36c0.33-0.15,0.66-0.3,1-0.45    c-0.72-2.79-1.5-5.57-2.16-8.38c-4.68-20.08-9.51-40.11-13.95-60.28c-4.61-20.95-9.1-41.94-13.13-63.06    c-3.88-20.3-7.3-40.73-10.58-61.19c-3.15-19.69-6.29-39.41-8.63-59.25c-2.41-20.38-4.62-40.88-5.54-61.41    c-1.21-27.15-1.17-54.39-1.46-81.59c-0.09-8.92,0.49-17.84,1.49-26.8c0.35,4.77,0.72,9.53,1.06,14.3    c1.46,20.51,2.79,41.03,4.39,61.52c1.33,17.05,2.53,34.15,4.58,51.08c2.32,19.24,5.16,38.41,8.43,57.44    c4.08,23.75,8.41,47.45,13.39,70.94c7.1,33.47,14.77,66.77,22.41,100.07c5.73,24.97,12.14,49.72,17.64,74.76    c6.22,28.32,11.78,56.85,17.6,85.3c4.67,22.81,9.36,45.61,13.91,68.45c1.51,7.56,2.61,15.23,3.93,22.84    c0.15,0.89,0.47,1.73,1.36,2.43c-4.84-41.94-9.68-83.88-14.51-125.82c0.15-0.02,0.3-0.04,0.45-0.05    c4.35,18.02,8.71,36.04,12.96,53.62c-0.67-12.92-1.35-26.27-2.07-39.61c-1.3-24.43-2.7-48.85-3.91-73.28    c-0.66-13.43-0.92-26.89-1.54-40.33c-0.7-15.18-4.49-29.55-9.36-43.32c-6.63-18.75-14.01-37.12-21.42-55.45    c-8.75-21.64-19.04-42.23-30-62.34c-2.62-4.81-4.75-10.02-7.07-14.96c5.44,3.05,23.34,28.83,36.5,53.89    c10.26,19.54,19.71,39.63,27.13,61.2c-8.2-84.98-14.88-170.08-26.91-254.37c0.33-0.08,0.67-0.16,1-0.24    c1.95,7.8,3.91,15.6,5.84,23.41c4.02,16.21,7.66,32.56,12.1,48.6c7.45,26.88,15.33,53.59,23.14,80.32    c9.63,32.96,18.09,66.36,24.68,100.39c4.44,22.89,8.17,45.98,12,69.03c1.38,8.33,2.11,16.81,3.29,26.51    c4.08-68.44,15.38-134,29.92-198.89c-0.85,6.99-1.66,13.98-2.55,20.95c-2.34,18.31-4.76,36.61-7.05,54.93    c-2.25,17.91-4.59,35.8-6.51,53.76c-1.45,13.59-2.34,27.28-3.41,40.93c-1.19,15.23-2.69,30.45-3.32,45.72    c-0.56,13.45-0.2,26.96-0.08,40.44c0.16,17.63,0.34,35.26,0.76,52.88c0.53,22.06,1.17,44.12,2.06,66.16    c0.23,5.76,1.56,11.45,2.38,17.17c0.35,0,0.69,0.01,1.04,0.01c0-1.38-0.01-2.76,0-4.14c0.2-16.49,0.04-33,0.69-49.46    c0.78-19.52,2.32-39,3.41-58.51c0.44-7.84,0.6-15.7,0.84-23.55c0.93-30.62,1.74-61.25,2.78-91.87    c0.57-16.72,1.27-33.45,2.35-50.13c1.03-15.8,2.68-31.54,3.99-47.31c1.32-15.93,2.57-31.87,3.84-47.81    c0.14-1.8,0.29-3.6,1.02-5.38c0.09,1.04,0.25,2.09,0.25,3.13c0.03,20.94,0.3,41.89-0.01,62.82c-0.49,33.53-1.21,67.05-2.13,100.56    c-1.26,46.16-1.17,92.32,0.2,138.47c0.45,15.16,1.45,30.3,2.52,45.45c0.27-5.48,0.49-10.96,0.84-16.43    c1.36-21.41,2.73-42.82,4.17-64.22c0.65-9.69,1.34-19.38,2.25-29.04c0.75-7.98-3.08-14.37-4.66-21.53    c-0.32-1.46-0.75-2.88-1.12-4.32c0.37-0.25,0.74-0.5,1.12-0.75c2.07,4.12,4.15,8.24,6.22,12.36c0.33-0.02,0.66-0.03,1-0.05    c0-4.32-0.2-8.66,0.04-12.96c1-18.13,2.23-36.25,3.21-54.38c1.5-27.78,2.92-55.58,4.28-83.37c0.61-12.55,1.16-25.11,1.45-37.68    c0.65-28.9,1.3-57.79,1.59-86.7c0.26-26.29-0.48-52.6,0.31-78.86c0.32-10.81-3-20.91-2.03-31.69    c1.14-12.76,3.77-24.38,12.48-32.72c1.7-1.63,3.76-2.71,5.65-4.05c0.34,0.19,0.69,0.37,1.03,0.56    c-0.99,8.09-1.22,16.45-3.12,24.21c-4.41,17.95-4.78,36.2-4.23,55.96c1.88-3.15,3.37-5.65,4.86-8.15    c0.38,0.31,0.77,0.61,1.15,0.92c-0.47,4.8-0.59,9.69-1.46,14.38c-4.17,22.67-3.44,45.74-4.17,68.7    c-0.92,28.78-1.99,57.55-2.98,86.32c-0.45,12.89-0.72,25.79-1.33,38.66c-1.25,26.59-2.66,53.16-4.03,79.74    c-0.76,14.87-1.52,29.73-2.36,44.59c-0.4,7.11-0.98,14.21-0.73,21.53c1.2-5.47,2.47-10.91,3.58-16.4    c5-24.93,9.26-50.1,15.07-74.75c10.7-45.4,26.23-88.53,44.16-130.41c1.34-3.14,2.96-6.1,4.99-8.91    c-5.56,16.61-11.25,33.16-16.64,49.86c-5.44,16.84-10.66,33.78-15.81,50.75c-5.16,16.99-9.63,34.24-12.24,52.08    c7.71-18.67,15-37.62,23.25-55.94c8.33-18.52,17.45-36.56,28.96-52.54c0.31,0.17,0.61,0.34,0.92,0.51    c-0.39,1.36-0.65,2.81-1.19,4.07c-6.93,15.96-14.15,31.75-20.79,47.88c-7.06,17.15-14.06,34.39-20.19,52.05    c-4.15,11.95-6.77,24.68-10.01,37.08c-2.97,11.35-2.08,18.15,4.33,32.93c0.72-1.33,1.43-2.25,1.79-3.35    c4.42-13.66,8.36-27.57,13.27-40.97c7.48-20.41,15.6-40.47,23.47-60.66c7.82-20.06,15.83-40.03,23.48-60.18    c11.99-31.55,23.03-63.67,35.81-94.74c14.4-35.02,30.28-69.15,45.56-103.64c0.97-2.19,2.39-4.09,3.92-5.93    c-25.23,67.38-49.35,135.27-70.64,204.66c10.02-25.05,21.14-49.29,34.67-71.8c13.51-22.48,27.74-44.13,47.12-59.67    c0.27,0.32,0.55,0.63,0.82,0.95c-3.58,4.78-7.18,9.55-10.75,14.35c-15.87,21.36-29.97,44.32-42.07,69.01    c-8.69,17.74-17.53,35.42-25.36,53.72c-5.85,13.68-10.92,28.01-15.03,42.59c-7.03,24.94-13.6,50.12-19.29,75.55    c-4.93,22.06-8.38,44.6-12.43,66.94c-0.2,1.13,0.09,2.39,0.16,3.6c0.35,0.04,0.69,0.09,1.04,0.13c2.32-8.83,4.82-17.61,6.94-26.51    c8.77-36.79,22.8-70.85,36.93-104.86c13.36-32.14,28.78-62.84,44.92-93.02c10.93-20.43,21.98-40.77,33.13-61.03    c9.12-16.58,18.14-33.26,27.77-49.4c10.19-17.07,21.05-33.57,31.64-50.29c0.6-0.94,1.36-1.73,2.11-2.68    c-51.86,107.51-106.13,213.15-150.74,325.3c0.34,0.24,0.67,0.47,1.01,0.71c6.43-11.72,12.86-23.44,19.69-35.13    c0.79,0.54,1.19,1.06,1.58,1.58c-2.66,7.31-5.41,14.59-7.97,21.95c-5.47,15.72-10.7,31.57-16.33,47.22    c-3.51,9.77-7.57,19.25-11.39,28.85c-0.49,1.23-0.98,2.45-1.94,4.86c1.5-0.99,2.18-1.18,2.5-1.69    c9.91-15.69,20.72-30.38,32.35-44.26c12.8-15.27,28.02-25.66,44.52-33.68c0.42-0.2,0.93-0.1,1.39-0.2    c0.64-0.13,1.27-0.31,2.07-0.17c-30.44,27.96-53.24,64.09-75.38,101.63c-11.08,19.34-20.36,39.14-24.87,61.69    c1-1.12,1.43-2.56,1.93-3.96c2.77-7.79,5.34-15.7,8.39-23.33C392.46,588.82,397.68,577.86,404.16,567.85z M230.67,355.61    c-2.17-10.38-4.15-20.82-6.54-31.13c-3.58-15.42-7.49-30.72-11.19-46.1c-2.87-11.91-5.63-23.85-8.44-35.78    c-0.36,0.08-0.72,0.16-1.08,0.24c0.32,3.12,0.59,6.24,0.97,9.35c2.49,20.18,5.08,40.34,7.5,60.54c1.61,13.48,3.06,27,4.44,40.52    c1.97,19.24,3.94,38.48,5.64,57.75c0.51,5.73,1.56,11,3.54,16.29c3.62,9.66,7.18,19.47,9.69,29.6    c7.38,29.91,11.98,60.61,16.6,91.29c0.7,4.64,1.63,9.24,2.45,13.85c0.28-14.58,0.1-29.02-0.95-43.37    c-1.37-18.74-3.14-37.45-5.26-56.08c-1.88-16.57-4.15-33.09-6.82-49.5C238.13,394.03,234.41,375.11,230.67,355.61z M236.81,528.65    c-2.36-20.94-4.73-41.88-12.19-61.29c-0.48,0.08-0.97,0.16-1.45,0.25c5.19,65.34,10.38,130.68,15.57,196.01    c0.33,0,0.65,0.01,0.98,0.01c0.2-0.76,0.54-1.51,0.57-2.28c0.3-5.86,0.82-11.73,0.74-17.58c-0.36-27.35-0.69-54.7-1.47-82.04    C239.25,550.93,237.81,540.16,236.81,528.65z M354.13,604.89c2.43-14.76,4.66-29.58,7.36-44.27c2.68-14.58,5.84-29.03,8.79-43.54    c-19.57,43.55-29.2,90.11-29.65,140.71C345.27,639.59,349.61,622.58,354.13,604.89z M379.88,451.81    c3.23-12.14,6.47-24.27,9.7-36.41c-14.25,21.86-42.51,114.43-39.68,128.19c0.36-0.57,0.7-0.93,0.87-1.39    c5.23-13.83,11-27.42,15.53-41.58C371.36,484.84,375.29,468.54,379.88,451.81z M319.34,593.84c-0.46,15.84-0.92,31.69-1.38,47.53    c0.3,0,0.59,0.01,0.89,0.01c0.89-8.92,1.61-17.87,2.71-26.76c2.37-19.19,4.95-38.34,7.44-57.51c1.31-10.09,3.04-20.14,3.72-30.29    c0.39-5.8-0.96-11.78-1.53-17.67c-0.11-1.11-0.26-2.21-0.39-3.32c-0.5-0.03-1-0.07-1.51-0.1    C322.94,534.28,319.85,563.41,319.34,593.84z M164.16,581.18c5.46,25.87,16.28,49.11,24.65,74.21    c0.64-15.86-24.28-106-31.68-115.4c-0.34,0.13-0.68,0.27-1.01,0.4c2.43,7.69,4.85,15.39,7.49,23.75c-1.02-0.86-1.58-1.34-2.13-1.8    c-0.4,1.01-0.8,2.03-1.21,3.04C161.46,570.45,162.67,575.51,164.16,581.18z"/>

<path d="M340.05,221.77c13.51-34.79,33.2-63.17,57.78-86.79c9.54-9.17,19.67-17.18,31.21-22.16c5.41-2.33,11.07-2.71,16.73-1.26    c5.48,1.41,8.64,11.31,6.33,19.12c-2.06,6.99-6.94,10.29-11.81,13.36c-15.96,10.08-30.71,22.28-43.75,37.23    c-11.25,12.89-22.2,26.19-32.79,39.87c-5.69,7.36-10.53,15.73-15.42,23.93c-5.69,9.53-11.02,19.36-16.53,29.05    c-0.17,0.3-0.54,0.44-0.51,0.42C331.01,256.42,333.44,238.74,340.05,221.77z"/>

<path d="M300.64,222.91c3.15,8.69,6.58,16.93,9.03,25.59c3.16,11.13,1.65,22.81,1.9,35.75c-1.83-1.84-3-2.66-3.76-3.86    c-5.38-8.47-10.77-16.94-15.98-25.56c-10.44-17.28-22.64-32.55-35.91-46.64c-6.74-7.16-13.65-14.1-20.22-21.5    c-3.49-3.93-6.58-8.26-7.21-14.66c-0.8-8.07,4.64-15.16,11.42-15.09c6.78,0.07,12.18,4.05,17.53,7.9    c13.73,9.87,24.21,23.99,33.37,39.57C294.27,210.27,297.27,216.55,300.64,222.91z"/>

<path d="M299.98,29.08c9.35,8.43,15.09,19.34,17.58,32.75c1.79,9.65-1.18,17.8-5.88,25.65c-2.91-4.51-5.8-8.95-8.65-13.44    c-4.58-7.21-9.49-14.16-13.6-21.74c-4.09-7.53-6.08-16.23-6.94-25.21c-0.12-1.29,0.31-2.66,0.48-3.9    C289.63,21.63,294.76,25.04,299.98,29.08z"/>

<path d="M281.79,84.56c-1.35-6.47-2.6-12.62-4.01-19.49c14.45,5.84,24.95,16.02,32.3,31.34c4.35,9.07,1.92,17.52-0.27,26.2    c-0.37,1.46-1.01,2.81-1.75,4.86C294.72,117.31,286.53,102.74,281.79,84.56z"/>

<path d="M305.62,220.82c-14.11-17.72-21.87-38.55-23.01-62.85c9.65,3.23,15.54,10.4,22.62,23.46c5.71,10.54,7.68,21.82,5.45,34.13    C309.83,220.28,308.49,221.72,305.62,220.82z"/>

<path d="M284.65,113.97c10.25,6.23,18.54,14.88,24.39,26.33c3.76,7.36,3.14,15.8,0.66,23.83c-0.75,2.43-1.92,4.68-2.93,7.1    c-16.41-15.15-22.64-36.23-26.49-59.45C281.8,112.54,283.11,113.19,284.65,113.97z"/>

<path d="M432.85,441.15c-0.62-0.39-1.01-0.91-1.59-1.57c1.69-3.41,3.57-6.67,5.44-9.92c0.24,0.18,0.49,0.36,0.73,0.54    C435.99,433.81,434.53,437.42,432.85,441.15z"/>

</g>

</g>

</svg>